<?xml version="1.0" encoding="UTF-8"?><svg id="Layer_1" xmlns="http://www.w3.org/2000/svg" viewBox="0 0 142.59 166.47"><path d="m2,24.14h140.6v142.33H29c-14.9,0-27-12.1-27-27V24.14h0Z" style="fill:#f26b6d;"/><path d="m142.59,0v49.45H27c-13.82,0-25-11.33-25-25.31,0-6.66,2.67-12.7,6.98-17.07S19.26,0,25.84,0h1.83c1.05.97,2.44,1.55,3.94,1.55s2.9-.58,3.94-1.55h107.02Z" style="fill:#f48884;"/><path d="m134.59,8.1v33.25H27c-9.38,0-17-7.71-17-17.21,0-8.84,7.1-16.04,15.84-16.04h108.75Z" style="fill:#ebe6e5;"/><path d="m134.59,8.14v33.06c-8.32-1.11-14.78-8.33-14.78-17.06s6.54-15.45,14.78-16Z" style="fill:#dbd3d2;"/><rect x="45.42" y="19.57" width="23.29" height="2.87" rx="1.22" ry="1.22" style="fill:#dbd3d2;"/><rect x="30.11" y="30.23" width="46.91" height="2.87" rx="1.22" ry="1.22" style="fill:#dbd3d2;"/><rect x="80.09" y="19.57" width="29.08" height="2.87" rx="1.22" ry="1.22" style="fill:#dbd3d2;"/><rect x="27.65" y="49.45" width="11.85" height="117.02" rx="5.12" ry="5.12" style="fill:#c0706d;"/><rect x="11.87" y="52.84" width="11.85" height="108.18" rx="5.12" ry="5.12" style="fill:#f48884;"/><path d="m25.7,77.05c-13.2-.68-23.7-11.74-23.7-25.27" style="fill:none; stroke:#fbb040; stroke-linecap:round; stroke-miterlimit:10; stroke-width:4px;"/><path d="m25.7,139.12c-13.2-.68-23.7-11.74-23.7-25.27" style="fill:none; stroke:#fbb040; stroke-linecap:round; stroke-miterlimit:10; stroke-width:4px;"/><path d="m123.36,86.5v16.75H45.42v-16.75h23.5c0-.19,0-.38,0-.57,0-8.65,6.94-15.66,15.48-15.66s15.47,7.01,15.47,15.66c0,.19,0,.38,0,.57h23.5Z" style="fill:#f48884;"/></svg>